# xmcd
#
# Track frame offsets:
#	150
#	20755
#	35950
#	48164
#	66152
#	100161
#	123264
#	143783
#	163266
#	179959
#	201494
#
# Disc length: 3101 seconds
#
# Revision: 1
# Processed by: cddbd v1.5.2PL0 Copyright (c) Steve Scherf et al.
# Submitted via: EasyCDDAExtractor 10.0.3.1
#
DISCID=ac0c1b0b
DTITLE=Boogie Bob - "Blues"
DYEAR=1900
DGENRE=Blues
TTITLE0=Angel Eyes
TTITLE1=I Got It Bad And That Ain't Good
TTITLE2=Route 66 (with J.R. Ripe vocals)
TTITLE3=Midnight Blue
TTITLE4=Bad News Blues (with Pataphysics)
TTITLE5=Boogie's Blues
TTITLE6=Summertime
TTITLE7=Madison Blues
TTITLE8=St. James Infirmary
TTITLE9=Down At The Bay (With Charlie Mills on Guitar)
TTITLE10=It's Not Over Yet
EXTD=
EXTT0=
EXTT1=
EXTT2=
EXTT3=
EXTT4=
EXTT5=
EXTT6=
EXTT7=
EXTT8=
EXTT9=
EXTT10=
PLAYORDER=
